<?xml version="1.0" encoding="UTF-8"?>
<!DOCTYPE svg PUBLIC "-//W3C//DTD SVG 1.1//EN" "http://www.w3.org/Graphics/SVG/1.1/DTD/svg11.dtd">
<svg xmlns="http://www.w3.org/2000/svg" version="1.1" width="512px" height="512px" style="shape-rendering:geometricPrecision; text-rendering:geometricPrecision; image-rendering:optimizeQuality; fill-rule:evenodd; clip-rule:evenodd" xmlns:xlink="http://www.w3.org/1999/xlink">
<g><path style="opacity:0.982" fill="#455a60" d="M 130.5,90.5 C 119.833,90.5 109.167,90.5 98.5,90.5C 96.1161,80.5803 94.1161,70.5803 92.5,60.5C 64.498,60.6666 36.498,60.5 8.5,60C 4.31481,58.3122 1.31481,55.4788 -0.5,51.5C -0.5,47.5 -0.5,43.5 -0.5,39.5C 1.31481,35.5212 4.31481,32.6878 8.5,31C 42.5,30.3333 76.5,30.3333 110.5,31C 113.295,32.7932 115.795,34.9598 118,37.5C 122.487,55.1019 126.653,72.7686 130.5,90.5 Z"/></g>
<g><path style="opacity:0.994" fill="#fcbe00" d="M 98.5,90.5 C 109.167,90.5 119.833,90.5 130.5,90.5C 186.167,90.5 241.833,90.5 297.5,90.5C 297.5,170.833 297.5,251.167 297.5,331.5C 249.167,331.5 200.833,331.5 152.5,331.5C 150.368,321.108 148.035,310.774 145.5,300.5C 129.837,230.521 114.17,160.521 98.5,90.5 Z"/></g>
<g><path style="opacity:1" fill="#feab00" d="M 297.5,90.5 C 297.833,90.5 298.167,90.5 298.5,90.5C 298.5,170.5 298.5,250.5 298.5,330.5C 344.833,330.5 391.167,330.5 437.5,330.5C 391.003,331.499 344.336,331.832 297.5,331.5C 297.5,251.167 297.5,170.833 297.5,90.5 Z"/></g>
<g><path style="opacity:1" fill="#fe9f00" d="M 298.5,90.5 C 366.501,90.3333 434.501,90.5 502.5,91C 506.685,92.6878 509.685,95.5212 511.5,99.5C 511.5,103.5 511.5,107.5 511.5,111.5C 491.072,181.299 470.905,251.299 451,321.5C 448.18,327.174 443.68,330.174 437.5,330.5C 391.167,330.5 344.833,330.5 298.5,330.5C 298.5,250.5 298.5,170.5 298.5,90.5 Z"/></g>
<g><path style="opacity:0.968" fill="#465a60" d="M 145.5,300.5 C 148.035,310.774 150.368,321.108 152.5,331.5C 141.61,332.561 136.776,338.561 138,349.5C 139.779,353.612 142.612,356.778 146.5,359C 196.795,360.477 247.128,360.977 297.5,360.5C 297.5,370.833 297.5,381.167 297.5,391.5C 267.5,391.5 237.5,391.5 207.5,391.5C 198.833,390.167 190.167,390.167 181.5,391.5C 171.494,391.666 161.494,391.5 151.5,391C 123.59,388.59 108.59,373.423 106.5,345.5C 108.432,320.902 121.432,305.902 145.5,300.5 Z"/></g>
<g><path style="opacity:1" fill="#3b4a51" d="M 297.5,360.5 C 346.501,360.333 395.501,360.5 444.5,361C 454.4,366.37 456.9,374.203 452,384.5C 450.062,387.106 447.562,388.939 444.5,390C 436.227,391.33 427.893,391.83 419.5,391.5C 410.833,390.167 402.167,390.167 393.5,391.5C 361.5,391.5 329.5,391.5 297.5,391.5C 297.5,381.167 297.5,370.833 297.5,360.5 Z"/></g>
<g><path style="opacity:0.973" fill="#687b85" d="M 207.5,391.5 C 235.998,403.834 245.498,424.834 236,454.5C 227.226,471.145 213.393,480.145 194.5,481.5C 171.641,479.331 156.807,467.331 150,445.5C 146.906,419.331 157.406,401.331 181.5,391.5C 190.167,390.167 198.833,390.167 207.5,391.5 Z"/></g>
<g><path style="opacity:0.973" fill="#586b75" d="M 419.5,391.5 C 447.967,403.775 457.467,424.775 448,454.5C 439.226,471.145 425.393,480.145 406.5,481.5C 383.641,479.331 368.807,467.331 362,445.5C 358.912,419.318 369.412,401.318 393.5,391.5C 402.167,390.167 410.833,390.167 419.5,391.5 Z"/></g>
<g><path style="opacity:1" fill="#465a61" d="M 190.5,420.5 C 205.188,420.897 211.021,428.231 208,442.5C 200.718,451.869 192.384,452.869 183,445.5C 176.834,434.512 179.334,426.179 190.5,420.5 Z"/></g>
<g><path style="opacity:1" fill="#3b4a51" d="M 402.5,420.5 C 413.106,419.957 419.439,424.79 421.5,435C 421,444.833 415.833,450 406,450.5C 395.635,448.458 390.969,442.124 392,431.5C 394.02,426.315 397.52,422.648 402.5,420.5 Z"/></g>
</svg>
